<svg width="600" height="797" viewBox="0 0 600 797" fill="none" xmlns="http://www.w3.org/2000/svg">
<path d="M0 15C0 6.71573 6.71573 0 15 0H585C593.284 0 600 6.71573 600 15V782C600 790.284 593.284 797 585 797H15C6.71571 797 0 790.284 0 782V15Z" fill="#FFF5E0"/>
<g clip-path="url(#clip0_19_2)">
<circle cx="47.5" cy="162.5" r="1.5" fill="#B99470"/>
<circle cx="70.5" cy="162.5" r="1.5" fill="#B99470"/>
<circle cx="93.5" cy="162.5" r="1.5" fill="#B99470"/>
<circle cx="116.5" cy="162.5" r="1.5" fill="#B99470"/>
<circle cx="139.5" cy="162.5" r="1.5" fill="#B99470"/>
<circle cx="162.5" cy="162.5" r="1.5" fill="#B99470"/>
<circle cx="185.5" cy="162.5" r="1.5" fill="#B99470"/>
<circle cx="208.5" cy="162.5" r="1.5" fill="#B99470"/>
<circle cx="231.5" cy="162.5" r="1.5" fill="#B99470"/>
<circle cx="254.5" cy="162.5" r="1.5" fill="#B99470"/>
<circle cx="277.5" cy="162.5" r="1.5" fill="#B99470"/>
<circle cx="300.5" cy="162.5" r="1.5" fill="#B99470"/>
<circle cx="323.5" cy="162.5" r="1.5" fill="#B99470"/>
<circle cx="346.5" cy="162.5" r="1.5" fill="#B99470"/>
<circle cx="369.5" cy="162.5" r="1.5" fill="#B99470"/>
<circle cx="392.5" cy="162.5" r="1.5" fill="#B99470"/>
<circle cx="415.5" cy="162.5" r="1.5" fill="#B99470"/>
<circle cx="438.5" cy="162.5" r="1.5" fill="#B99470"/>
<circle cx="461.5" cy="162.5" r="1.5" fill="#B99470"/>
<circle cx="484.5" cy="162.5" r="1.5" fill="#B99470"/>
<circle cx="507.5" cy="162.5" r="1.5" fill="#B99470"/>
<circle cx="530.5" cy="162.5" r="1.5" fill="#B99470"/>
<circle cx="553.5" cy="162.5" r="1.5" fill="#B99470"/>
<circle cx="47.5" cy="185.5" r="1.5" fill="#B99470"/>
<circle cx="70.5" cy="185.5" r="1.5" fill="#B99470"/>
<circle cx="93.5" cy="185.5" r="1.5" fill="#B99470"/>
<circle cx="116.5" cy="185.5" r="1.5" fill="#B99470"/>
<circle cx="139.5" cy="185.5" r="1.5" fill="#B99470"/>
<circle cx="162.5" cy="185.5" r="1.5" fill="#B99470"/>
<circle cx="185.5" cy="185.5" r="1.5" fill="#B99470"/>
<circle cx="208.5" cy="185.5" r="1.5" fill="#B99470"/>
<circle cx="231.5" cy="185.5" r="1.5" fill="#B99470"/>
<circle cx="254.5" cy="185.5" r="1.5" fill="#B99470"/>
<circle cx="277.5" cy="185.5" r="1.5" fill="#B99470"/>
<circle cx="300.5" cy="185.5" r="1.5" fill="#B99470"/>
<circle cx="323.5" cy="185.5" r="1.5" fill="#B99470"/>
<circle cx="346.5" cy="185.5" r="1.5" fill="#B99470"/>
<circle cx="369.5" cy="185.5" r="1.5" fill="#B99470"/>
<circle cx="392.5" cy="185.5" r="1.5" fill="#B99470"/>
<circle cx="415.5" cy="185.5" r="1.5" fill="#B99470"/>
<circle cx="438.5" cy="185.5" r="1.5" fill="#B99470"/>
<circle cx="461.5" cy="185.5" r="1.5" fill="#B99470"/>
<circle cx="484.5" cy="185.5" r="1.5" fill="#B99470"/>
<circle cx="507.5" cy="185.5" r="1.5" fill="#B99470"/>
<circle cx="530.5" cy="185.5" r="1.5" fill="#B99470"/>
<circle cx="553.5" cy="185.5" r="1.5" fill="#B99470"/>
<circle cx="47.5" cy="208.5" r="1.5" fill="#B99470"/>
<circle cx="70.5" cy="208.5" r="1.5" fill="#B99470"/>
<circle cx="93.5" cy="208.5" r="1.5" fill="#B99470"/>
<circle cx="116.5" cy="208.5" r="1.5" fill="#B99470"/>
<circle cx="139.5" cy="208.5" r="1.5" fill="#B99470"/>
<circle cx="162.5" cy="208.5" r="1.5" fill="#B99470"/>
<circle cx="185.5" cy="208.5" r="1.5" fill="#B99470"/>
<circle cx="208.5" cy="208.5" r="1.5" fill="#B99470"/>
<circle cx="231.5" cy="208.5" r="1.5" fill="#B99470"/>
<circle cx="254.5" cy="208.5" r="1.5" fill="#B99470"/>
<circle cx="277.5" cy="208.5" r="1.5" fill="#B99470"/>
<circle cx="300.5" cy="208.5" r="1.5" fill="#B99470"/>
<circle cx="323.5" cy="208.5" r="1.5" fill="#B99470"/>
<circle cx="346.5" cy="208.5" r="1.5" fill="#B99470"/>
<circle cx="369.5" cy="208.5" r="1.5" fill="#B99470"/>
<circle cx="392.5" cy="208.5" r="1.5" fill="#B99470"/>
<circle cx="415.5" cy="208.5" r="1.5" fill="#B99470"/>
<circle cx="438.5" cy="208.5" r="1.5" fill="#B99470"/>
<circle cx="461.5" cy="208.5" r="1.5" fill="#B99470"/>
<circle cx="484.5" cy="208.5" r="1.5" fill="#B99470"/>
<circle cx="507.5" cy="208.5" r="1.5" fill="#B99470"/>
<circle cx="530.5" cy="208.5" r="1.5" fill="#B99470"/>
<circle cx="553.5" cy="208.5" r="1.5" fill="#B99470"/>
<circle cx="47.5" cy="231.5" r="1.5" fill="#B99470"/>
<circle cx="70.5" cy="231.5" r="1.5" fill="#B99470"/>
<circle cx="93.5" cy="231.5" r="1.5" fill="#B99470"/>
<circle cx="116.5" cy="231.5" r="1.5" fill="#B99470"/>
<circle cx="139.5" cy="231.5" r="1.5" fill="#B99470"/>
<circle cx="162.5" cy="231.5" r="1.5" fill="#B99470"/>
<circle cx="185.5" cy="231.5" r="1.5" fill="#B99470"/>
<circle cx="208.5" cy="231.5" r="1.5" fill="#B99470"/>
<circle cx="231.5" cy="231.5" r="1.5" fill="#B99470"/>
<circle cx="254.5" cy="231.5" r="1.5" fill="#B99470"/>
<circle cx="277.5" cy="231.5" r="1.5" fill="#B99470"/>
<circle cx="300.5" cy="231.5" r="1.5" fill="#B99470"/>
<circle cx="323.5" cy="231.5" r="1.5" fill="#B99470"/>
<circle cx="346.5" cy="231.5" r="1.5" fill="#B99470"/>
<circle cx="369.5" cy="231.5" r="1.5" fill="#B99470"/>
<circle cx="392.5" cy="231.5" r="1.5" fill="#B99470"/>
<circle cx="415.5" cy="231.5" r="1.5" fill="#B99470"/>
<circle cx="438.5" cy="231.5" r="1.5" fill="#B99470"/>
<circle cx="461.5" cy="231.5" r="1.5" fill="#B99470"/>
<circle cx="484.5" cy="231.5" r="1.5" fill="#B99470"/>
<circle cx="507.5" cy="231.5" r="1.5" fill="#B99470"/>
<circle cx="530.5" cy="231.5" r="1.5" fill="#B99470"/>
<circle cx="553.5" cy="231.5" r="1.5" fill="#B99470"/>
<circle cx="47.5" cy="254.5" r="1.5" fill="#B99470"/>
<circle cx="70.5" cy="254.5" r="1.5" fill="#B99470"/>
<circle cx="93.5" cy="254.5" r="1.5" fill="#B99470"/>
<circle cx="116.5" cy="254.5" r="1.5" fill="#B99470"/>
<circle cx="139.5" cy="254.5" r="1.5" fill="#B99470"/>
<circle cx="162.5" cy="254.5" r="1.5" fill="#B99470"/>
<circle cx="185.5" cy="254.5" r="1.5" fill="#B99470"/>
<circle cx="208.5" cy="254.5" r="1.5" fill="#B99470"/>
<circle cx="231.5" cy="254.5" r="1.5" fill="#B99470"/>
<circle cx="254.5" cy="254.5" r="1.5" fill="#B99470"/>
<circle cx="277.5" cy="254.5" r="1.5" fill="#B99470"/>
<circle cx="300.5" cy="254.5" r="1.5" fill="#B99470"/>
<circle cx="323.5" cy="254.5" r="1.5" fill="#B99470"/>
<circle cx="346.5" cy="254.5" r="1.5" fill="#B99470"/>
<circle cx="369.5" cy="254.5" r="1.5" fill="#B99470"/>
<circle cx="392.5" cy="254.5" r="1.5" fill="#B99470"/>
<circle cx="415.5" cy="254.5" r="1.5" fill="#B99470"/>
<circle cx="438.5" cy="254.5" r="1.5" fill="#B99470"/>
<circle cx="461.5" cy="254.5" r="1.5" fill="#B99470"/>
<circle cx="484.5" cy="254.5" r="1.5" fill="#B99470"/>
<circle cx="507.5" cy="254.5" r="1.5" fill="#B99470"/>
<circle cx="530.5" cy="254.5" r="1.5" fill="#B99470"/>
<circle cx="553.5" cy="254.5" r="1.5" fill="#B99470"/>
<circle cx="47.5" cy="277.5" r="1.5" fill="#B99470"/>
<circle cx="70.5" cy="277.5" r="1.5" fill="#B99470"/>
<circle cx="93.5" cy="277.5" r="1.5" fill="#B99470"/>
<circle cx="116.5" cy="277.5" r="1.5" fill="#B99470"/>
<circle cx="139.5" cy="277.5" r="1.5" fill="#B99470"/>
<circle cx="162.5" cy="277.5" r="1.5" fill="#B99470"/>
<circle cx="185.5" cy="277.5" r="1.5" fill="#B99470"/>
<circle cx="208.5" cy="277.5" r="1.5" fill="#B99470"/>
<circle cx="231.5" cy="277.5" r="1.5" fill="#B99470"/>
<circle cx="254.5" cy="277.5" r="1.5" fill="#B99470"/>
<circle cx="277.5" cy="277.5" r="1.5" fill="#B99470"/>
<circle cx="300.5" cy="277.5" r="1.5" fill="#B99470"/>
<circle cx="323.5" cy="277.5" r="1.5" fill="#B99470"/>
<circle cx="346.5" cy="277.5" r="1.5" fill="#B99470"/>
<circle cx="369.5" cy="277.5" r="1.5" fill="#B99470"/>
<circle cx="392.5" cy="277.5" r="1.5" fill="#B99470"/>
<circle cx="415.5" cy="277.5" r="1.5" fill="#B99470"/>
<circle cx="438.5" cy="277.5" r="1.5" fill="#B99470"/>
<circle cx="461.5" cy="277.5" r="1.5" fill="#B99470"/>
<circle cx="484.5" cy="277.5" r="1.5" fill="#B99470"/>
<circle cx="507.5" cy="277.5" r="1.5" fill="#B99470"/>
<circle cx="530.5" cy="277.5" r="1.5" fill="#B99470"/>
<circle cx="553.5" cy="277.5" r="1.5" fill="#B99470"/>
<circle cx="47.5" cy="300.5" r="1.5" fill="#B99470"/>
<circle cx="70.5" cy="300.5" r="1.5" fill="#B99470"/>
<circle cx="93.5" cy="300.5" r="1.5" fill="#B99470"/>
<circle cx="116.5" cy="300.5" r="1.5" fill="#B99470"/>
<circle cx="139.5" cy="300.5" r="1.5" fill="#B99470"/>
<circle cx="162.5" cy="300.5" r="1.5" fill="#B99470"/>
<circle cx="185.5" cy="300.5" r="1.5" fill="#B99470"/>
<circle cx="208.5" cy="300.5" r="1.5" fill="#B99470"/>
<circle cx="231.5" cy="300.5" r="1.5" fill="#B99470"/>
<circle cx="254.5" cy="300.5" r="1.5" fill="#B99470"/>
<circle cx="277.5" cy="300.5" r="1.5" fill="#B99470"/>
<circle cx="300.5" cy="300.5" r="1.5" fill="#B99470"/>
<circle cx="323.5" cy="300.5" r="1.5" fill="#B99470"/>
<circle cx="346.5" cy="300.5" r="1.5" fill="#B99470"/>
<circle cx="369.5" cy="300.5" r="1.5" fill="#B99470"/>
<circle cx="392.5" cy="300.5" r="1.5" fill="#B99470"/>
<circle cx="415.5" cy="300.5" r="1.5" fill="#B99470"/>
<circle cx="438.5" cy="300.5" r="1.5" fill="#B99470"/>
<circle cx="461.5" cy="300.5" r="1.5" fill="#B99470"/>
<circle cx="484.5" cy="300.5" r="1.5" fill="#B99470"/>
<circle cx="507.5" cy="300.5" r="1.5" fill="#B99470"/>
<circle cx="530.5" cy="300.5" r="1.5" fill="#B99470"/>
<circle cx="553.5" cy="300.5" r="1.5" fill="#B99470"/>
<circle cx="47.5" cy="323.5" r="1.5" fill="#B99470"/>
<circle cx="70.5" cy="323.5" r="1.5" fill="#B99470"/>
<circle cx="93.5" cy="323.5" r="1.5" fill="#B99470"/>
<circle cx="116.5" cy="323.5" r="1.5" fill="#B99470"/>
<circle cx="139.5" cy="323.5" r="1.5" fill="#B99470"/>
<circle cx="162.5" cy="323.5" r="1.5" fill="#B99470"/>
<circle cx="185.5" cy="323.5" r="1.5" fill="#B99470"/>
<circle cx="208.5" cy="323.5" r="1.5" fill="#B99470"/>
<circle cx="231.5" cy="323.5" r="1.5" fill="#B99470"/>
<circle cx="254.5" cy="323.5" r="1.5" fill="#B99470"/>
<circle cx="277.5" cy="323.5" r="1.5" fill="#B99470"/>
<circle cx="300.5" cy="323.5" r="1.5" fill="#B99470"/>
<circle cx="323.5" cy="323.5" r="1.5" fill="#B99470"/>
<circle cx="346.5" cy="323.5" r="1.5" fill="#B99470"/>
<circle cx="369.5" cy="323.5" r="1.5" fill="#B99470"/>
<circle cx="392.5" cy="323.5" r="1.5" fill="#B99470"/>
<circle cx="415.5" cy="323.5" r="1.5" fill="#B99470"/>
<circle cx="438.5" cy="323.5" r="1.5" fill="#B99470"/>
<circle cx="461.5" cy="323.5" r="1.5" fill="#B99470"/>
<circle cx="484.5" cy="323.5" r="1.5" fill="#B99470"/>
<circle cx="507.5" cy="323.5" r="1.5" fill="#B99470"/>
<circle cx="530.5" cy="323.5" r="1.5" fill="#B99470"/>
<circle cx="553.5" cy="323.5" r="1.5" fill="#B99470"/>
<circle cx="47.5" cy="346.5" r="1.5" fill="#B99470"/>
<circle cx="70.5" cy="346.5" r="1.5" fill="#B99470"/>
<circle cx="93.5" cy="346.5" r="1.5" fill="#B99470"/>
<circle cx="116.5" cy="346.5" r="1.5" fill="#B99470"/>
<circle cx="139.5" cy="346.5" r="1.5" fill="#B99470"/>
<circle cx="162.5" cy="346.5" r="1.5" fill="#B99470"/>
<circle cx="185.5" cy="346.5" r="1.5" fill="#B99470"/>
<circle cx="208.5" cy="346.5" r="1.5" fill="#B99470"/>
<circle cx="231.5" cy="346.5" r="1.5" fill="#B99470"/>
<circle cx="254.5" cy="346.5" r="1.5" fill="#B99470"/>
<circle cx="277.5" cy="346.5" r="1.5" fill="#B99470"/>
<circle cx="300.5" cy="346.5" r="1.5" fill="#B99470"/>
<circle cx="323.5" cy="346.5" r="1.5" fill="#B99470"/>
<circle cx="346.5" cy="346.5" r="1.5" fill="#B99470"/>
<circle cx="369.5" cy="346.5" r="1.5" fill="#B99470"/>
<circle cx="392.5" cy="346.5" r="1.5" fill="#B99470"/>
<circle cx="415.5" cy="346.5" r="1.5" fill="#B99470"/>
<circle cx="438.5" cy="346.5" r="1.5" fill="#B99470"/>
<circle cx="461.5" cy="346.5" r="1.5" fill="#B99470"/>
<circle cx="484.5" cy="346.5" r="1.5" fill="#B99470"/>
<circle cx="507.5" cy="346.5" r="1.5" fill="#B99470"/>
<circle cx="530.5" cy="346.5" r="1.5" fill="#B99470"/>
<circle cx="553.5" cy="346.5" r="1.5" fill="#B99470"/>
<circle cx="47.5" cy="369.5" r="1.5" fill="#B99470"/>
<circle cx="70.5" cy="369.5" r="1.5" fill="#B99470"/>
<circle cx="93.5" cy="369.5" r="1.5" fill="#B99470"/>
<circle cx="116.5" cy="369.5" r="1.5" fill="#B99470"/>
<circle cx="139.5" cy="369.5" r="1.5" fill="#B99470"/>
<circle cx="162.5" cy="369.5" r="1.5" fill="#B99470"/>
<circle cx="185.5" cy="369.5" r="1.5" fill="#B99470"/>
<circle cx="208.5" cy="369.5" r="1.5" fill="#B99470"/>
<circle cx="231.5" cy="369.5" r="1.5" fill="#B99470"/>
<circle cx="254.5" cy="369.5" r="1.5" fill="#B99470"/>
<circle cx="277.5" cy="369.5" r="1.5" fill="#B99470"/>
<circle cx="300.5" cy="369.5" r="1.5" fill="#B99470"/>
<circle cx="323.5" cy="369.5" r="1.5" fill="#B99470"/>
<circle cx="346.5" cy="369.5" r="1.5" fill="#B99470"/>
<circle cx="369.5" cy="369.5" r="1.5" fill="#B99470"/>
<circle cx="392.5" cy="369.5" r="1.5" fill="#B99470"/>
<circle cx="415.5" cy="369.5" r="1.5" fill="#B99470"/>
<circle cx="438.5" cy="369.5" r="1.5" fill="#B99470"/>
<circle cx="461.5" cy="369.5" r="1.5" fill="#B99470"/>
<circle cx="484.5" cy="369.5" r="1.5" fill="#B99470"/>
<circle cx="507.5" cy="369.5" r="1.5" fill="#B99470"/>
<circle cx="530.5" cy="369.5" r="1.5" fill="#B99470"/>
<circle cx="553.5" cy="369.5" r="1.5" fill="#B99470"/>
<circle cx="47.5" cy="392.5" r="1.5" fill="#B99470"/>
<circle cx="70.5" cy="392.5" r="1.5" fill="#B99470"/>
<circle cx="93.5" cy="392.5" r="1.5" fill="#B99470"/>
<circle cx="116.5" cy="392.5" r="1.5" fill="#B99470"/>
<circle cx="139.5" cy="392.5" r="1.5" fill="#B99470"/>
<circle cx="162.5" cy="392.5" r="1.5" fill="#B99470"/>
<circle cx="185.5" cy="392.5" r="1.5" fill="#B99470"/>
<circle cx="208.5" cy="392.5" r="1.5" fill="#B99470"/>
<circle cx="231.5" cy="392.5" r="1.5" fill="#B99470"/>
<circle cx="254.5" cy="392.5" r="1.5" fill="#B99470"/>
<circle cx="277.5" cy="392.5" r="1.5" fill="#B99470"/>
<circle cx="300.5" cy="392.5" r="1.5" fill="#B99470"/>
<circle cx="323.5" cy="392.5" r="1.5" fill="#B99470"/>
<circle cx="346.5" cy="392.5" r="1.5" fill="#B99470"/>
<circle cx="369.5" cy="392.5" r="1.5" fill="#B99470"/>
<circle cx="392.5" cy="392.5" r="1.5" fill="#B99470"/>
<circle cx="415.5" cy="392.5" r="1.5" fill="#B99470"/>
<circle cx="438.5" cy="392.5" r="1.5" fill="#B99470"/>
<circle cx="461.5" cy="392.5" r="1.5" fill="#B99470"/>
<circle cx="484.5" cy="392.5" r="1.5" fill="#B99470"/>
<circle cx="507.5" cy="392.5" r="1.5" fill="#B99470"/>
<circle cx="530.5" cy="392.5" r="1.5" fill="#B99470"/>
<circle cx="553.5" cy="392.5" r="1.5" fill="#B99470"/>
<circle cx="47.5" cy="415.5" r="1.5" fill="#B99470"/>
<circle cx="70.5" cy="415.5" r="1.5" fill="#B99470"/>
<circle cx="93.5" cy="415.5" r="1.5" fill="#B99470"/>
<circle cx="116.5" cy="415.5" r="1.5" fill="#B99470"/>
<circle cx="139.5" cy="415.5" r="1.5" fill="#B99470"/>
<circle cx="162.5" cy="415.5" r="1.5" fill="#B99470"/>
<circle cx="185.5" cy="415.5" r="1.5" fill="#B99470"/>
<circle cx="208.5" cy="415.5" r="1.5" fill="#B99470"/>
<circle cx="231.5" cy="415.5" r="1.5" fill="#B99470"/>
<circle cx="254.5" cy="415.5" r="1.5" fill="#B99470"/>
<circle cx="277.5" cy="415.5" r="1.5" fill="#B99470"/>
<circle cx="300.5" cy="415.5" r="1.5" fill="#B99470"/>
<circle cx="323.5" cy="415.5" r="1.5" fill="#B99470"/>
<circle cx="346.5" cy="415.5" r="1.5" fill="#B99470"/>
<circle cx="369.5" cy="415.5" r="1.5" fill="#B99470"/>
<circle cx="392.5" cy="415.5" r="1.5" fill="#B99470"/>
<circle cx="415.5" cy="415.5" r="1.5" fill="#B99470"/>
<circle cx="438.5" cy="415.5" r="1.5" fill="#B99470"/>
<circle cx="461.5" cy="415.5" r="1.5" fill="#B99470"/>
<circle cx="484.5" cy="415.5" r="1.5" fill="#B99470"/>
<circle cx="507.5" cy="415.5" r="1.5" fill="#B99470"/>
<circle cx="530.5" cy="415.5" r="1.5" fill="#B99470"/>
<circle cx="553.5" cy="415.5" r="1.5" fill="#B99470"/>
<circle cx="47.5" cy="438.5" r="1.5" fill="#B99470"/>
<circle cx="70.5" cy="438.5" r="1.5" fill="#B99470"/>
<circle cx="93.5" cy="438.5" r="1.5" fill="#B99470"/>
<circle cx="116.5" cy="438.5" r="1.5" fill="#B99470"/>
<circle cx="139.5" cy="438.5" r="1.5" fill="#B99470"/>
<circle cx="162.5" cy="438.5" r="1.5" fill="#B99470"/>
<circle cx="185.5" cy="438.5" r="1.5" fill="#B99470"/>
<circle cx="208.5" cy="438.5" r="1.5" fill="#B99470"/>
<circle cx="231.5" cy="438.5" r="1.5" fill="#B99470"/>
<circle cx="254.5" cy="438.5" r="1.5" fill="#B99470"/>
<circle cx="277.5" cy="438.5" r="1.5" fill="#B99470"/>
<circle cx="300.5" cy="438.5" r="1.5" fill="#B99470"/>
<circle cx="323.5" cy="438.5" r="1.5" fill="#B99470"/>
<circle cx="346.5" cy="438.5" r="1.5" fill="#B99470"/>
<circle cx="369.5" cy="438.5" r="1.5" fill="#B99470"/>
<circle cx="392.5" cy="438.5" r="1.5" fill="#B99470"/>
<circle cx="415.5" cy="438.5" r="1.5" fill="#B99470"/>
<circle cx="438.5" cy="438.5" r="1.5" fill="#B99470"/>
<circle cx="461.5" cy="438.5" r="1.5" fill="#B99470"/>
<circle cx="484.5" cy="438.5" r="1.5" fill="#B99470"/>
<circle cx="507.5" cy="438.5" r="1.5" fill="#B99470"/>
<circle cx="530.5" cy="438.5" r="1.5" fill="#B99470"/>
<circle cx="553.5" cy="438.5" r="1.5" fill="#B99470"/>
<circle cx="47.5" cy="461.5" r="1.5" fill="#B99470"/>
<circle cx="70.5" cy="461.5" r="1.5" fill="#B99470"/>
<circle cx="93.5" cy="461.5" r="1.5" fill="#B99470"/>
<circle cx="116.5" cy="461.5" r="1.5" fill="#B99470"/>
<circle cx="139.5" cy="461.5" r="1.5" fill="#B99470"/>
<circle cx="162.5" cy="461.5" r="1.5" fill="#B99470"/>
<circle cx="185.5" cy="461.5" r="1.5" fill="#B99470"/>
<circle cx="208.5" cy="461.5" r="1.5" fill="#B99470"/>
<circle cx="231.5" cy="461.5" r="1.5" fill="#B99470"/>
<circle cx="254.5" cy="461.5" r="1.5" fill="#B99470"/>
<circle cx="277.5" cy="461.5" r="1.5" fill="#B99470"/>
<circle cx="300.5" cy="461.5" r="1.5" fill="#B99470"/>
<circle cx="323.5" cy="461.5" r="1.5" fill="#B99470"/>
<circle cx="346.5" cy="461.5" r="1.5" fill="#B99470"/>
<circle cx="369.5" cy="461.5" r="1.5" fill="#B99470"/>
<circle cx="392.5" cy="461.5" r="1.5" fill="#B99470"/>
<circle cx="415.5" cy="461.5" r="1.5" fill="#B99470"/>
<circle cx="438.5" cy="461.5" r="1.5" fill="#B99470"/>
<circle cx="461.5" cy="461.5" r="1.5" fill="#B99470"/>
<circle cx="484.5" cy="461.5" r="1.5" fill="#B99470"/>
<circle cx="507.5" cy="461.5" r="1.5" fill="#B99470"/>
<circle cx="530.5" cy="461.5" r="1.5" fill="#B99470"/>
<circle cx="553.5" cy="461.5" r="1.5" fill="#B99470"/>
<circle cx="47.5" cy="484.5" r="1.5" fill="#B99470"/>
<circle cx="70.5" cy="484.5" r="1.5" fill="#B99470"/>
<circle cx="93.5" cy="484.5" r="1.5" fill="#B99470"/>
<circle cx="116.5" cy="484.5" r="1.5" fill="#B99470"/>
<circle cx="139.5" cy="484.5" r="1.5" fill="#B99470"/>
<circle cx="162.5" cy="484.5" r="1.5" fill="#B99470"/>
<circle cx="185.5" cy="484.5" r="1.5" fill="#B99470"/>
<circle cx="208.5" cy="484.5" r="1.5" fill="#B99470"/>
<circle cx="231.5" cy="484.5" r="1.5" fill="#B99470"/>
<circle cx="254.5" cy="484.5" r="1.5" fill="#B99470"/>
<circle cx="277.5" cy="484.5" r="1.5" fill="#B99470"/>
<circle cx="300.5" cy="484.5" r="1.5" fill="#B99470"/>
<circle cx="323.5" cy="484.5" r="1.5" fill="#B99470"/>
<circle cx="346.5" cy="484.5" r="1.5" fill="#B99470"/>
<circle cx="369.5" cy="484.5" r="1.5" fill="#B99470"/>
<circle cx="392.5" cy="484.5" r="1.5" fill="#B99470"/>
<circle cx="415.5" cy="484.5" r="1.5" fill="#B99470"/>
<circle cx="438.5" cy="484.5" r="1.5" fill="#B99470"/>
<circle cx="461.5" cy="484.5" r="1.5" fill="#B99470"/>
<circle cx="484.5" cy="484.5" r="1.5" fill="#B99470"/>
<circle cx="507.5" cy="484.5" r="1.5" fill="#B99470"/>
<circle cx="530.5" cy="484.5" r="1.5" fill="#B99470"/>
<circle cx="553.5" cy="484.5" r="1.5" fill="#B99470"/>
<circle cx="47.5" cy="507.5" r="1.5" fill="#B99470"/>
<circle cx="70.5" cy="507.5" r="1.5" fill="#B99470"/>
<circle cx="93.5" cy="507.5" r="1.5" fill="#B99470"/>
<circle cx="116.5" cy="507.5" r="1.5" fill="#B99470"/>
<circle cx="139.5" cy="507.5" r="1.5" fill="#B99470"/>
<circle cx="162.5" cy="507.5" r="1.5" fill="#B99470"/>
<circle cx="185.5" cy="507.5" r="1.5" fill="#B99470"/>
<circle cx="208.5" cy="507.5" r="1.5" fill="#B99470"/>
<circle cx="231.5" cy="507.5" r="1.5" fill="#B99470"/>
<circle cx="254.5" cy="507.5" r="1.5" fill="#B99470"/>
<circle cx="277.5" cy="507.5" r="1.5" fill="#B99470"/>
<circle cx="300.5" cy="507.5" r="1.5" fill="#B99470"/>
<circle cx="323.5" cy="507.5" r="1.5" fill="#B99470"/>
<circle cx="346.5" cy="507.5" r="1.5" fill="#B99470"/>
<circle cx="369.5" cy="507.5" r="1.5" fill="#B99470"/>
<circle cx="392.5" cy="507.5" r="1.5" fill="#B99470"/>
<circle cx="415.5" cy="507.5" r="1.5" fill="#B99470"/>
<circle cx="438.5" cy="507.5" r="1.5" fill="#B99470"/>
<circle cx="461.5" cy="507.5" r="1.5" fill="#B99470"/>
<circle cx="484.5" cy="507.5" r="1.5" fill="#B99470"/>
<circle cx="507.5" cy="507.5" r="1.5" fill="#B99470"/>
<circle cx="530.5" cy="507.5" r="1.5" fill="#B99470"/>
<circle cx="553.5" cy="507.5" r="1.5" fill="#B99470"/>
<circle cx="47.5" cy="530.5" r="1.5" fill="#B99470"/>
<circle cx="70.5" cy="530.5" r="1.5" fill="#B99470"/>
<circle cx="93.5" cy="530.5" r="1.5" fill="#B99470"/>
<circle cx="116.5" cy="530.5" r="1.5" fill="#B99470"/>
<circle cx="139.5" cy="530.5" r="1.5" fill="#B99470"/>
<circle cx="162.5" cy="530.5" r="1.5" fill="#B99470"/>
<circle cx="185.5" cy="530.5" r="1.5" fill="#B99470"/>
<circle cx="208.5" cy="530.5" r="1.5" fill="#B99470"/>
<circle cx="231.5" cy="530.5" r="1.5" fill="#B99470"/>
<circle cx="254.5" cy="530.5" r="1.5" fill="#B99470"/>
<circle cx="277.5" cy="530.5" r="1.5" fill="#B99470"/>
<circle cx="300.5" cy="530.5" r="1.5" fill="#B99470"/>
<circle cx="323.5" cy="530.5" r="1.5" fill="#B99470"/>
<circle cx="346.5" cy="530.5" r="1.5" fill="#B99470"/>
<circle cx="369.5" cy="530.5" r="1.5" fill="#B99470"/>
<circle cx="392.5" cy="530.5" r="1.5" fill="#B99470"/>
<circle cx="415.5" cy="530.5" r="1.5" fill="#B99470"/>
<circle cx="438.5" cy="530.5" r="1.5" fill="#B99470"/>
<circle cx="461.5" cy="530.5" r="1.5" fill="#B99470"/>
<circle cx="484.5" cy="530.5" r="1.5" fill="#B99470"/>
<circle cx="507.5" cy="530.5" r="1.5" fill="#B99470"/>
<circle cx="530.5" cy="530.5" r="1.5" fill="#B99470"/>
<circle cx="553.5" cy="530.5" r="1.5" fill="#B99470"/>
<circle cx="47.5" cy="553.5" r="1.5" fill="#B99470"/>
<circle cx="70.5" cy="553.5" r="1.5" fill="#B99470"/>
<circle cx="93.5" cy="553.5" r="1.5" fill="#B99470"/>
<circle cx="116.5" cy="553.5" r="1.5" fill="#B99470"/>
<circle cx="139.5" cy="553.5" r="1.5" fill="#B99470"/>
<circle cx="162.5" cy="553.5" r="1.5" fill="#B99470"/>
<circle cx="185.5" cy="553.5" r="1.5" fill="#B99470"/>
<circle cx="208.5" cy="553.5" r="1.5" fill="#B99470"/>
<circle cx="231.5" cy="553.5" r="1.5" fill="#B99470"/>
<circle cx="254.5" cy="553.5" r="1.5" fill="#B99470"/>
<circle cx="277.5" cy="553.5" r="1.5" fill="#B99470"/>
<circle cx="300.5" cy="553.5" r="1.5" fill="#B99470"/>
<circle cx="323.5" cy="553.5" r="1.5" fill="#B99470"/>
<circle cx="346.5" cy="553.5" r="1.5" fill="#B99470"/>
<circle cx="369.5" cy="553.5" r="1.5" fill="#B99470"/>
<circle cx="392.5" cy="553.5" r="1.5" fill="#B99470"/>
<circle cx="415.5" cy="553.5" r="1.5" fill="#B99470"/>
<circle cx="438.5" cy="553.5" r="1.5" fill="#B99470"/>
<circle cx="461.5" cy="553.5" r="1.5" fill="#B99470"/>
<circle cx="484.5" cy="553.5" r="1.5" fill="#B99470"/>
<circle cx="507.5" cy="553.5" r="1.5" fill="#B99470"/>
<circle cx="530.5" cy="553.5" r="1.5" fill="#B99470"/>
<circle cx="553.5" cy="553.5" r="1.5" fill="#B99470"/>
<circle cx="47.5" cy="576.5" r="1.5" fill="#B99470"/>
<circle cx="70.5" cy="576.5" r="1.5" fill="#B99470"/>
<circle cx="93.5" cy="576.5" r="1.5" fill="#B99470"/>
<circle cx="116.5" cy="576.5" r="1.5" fill="#B99470"/>
<circle cx="139.5" cy="576.5" r="1.5" fill="#B99470"/>
<circle cx="162.5" cy="576.5" r="1.5" fill="#B99470"/>
<circle cx="185.5" cy="576.5" r="1.5" fill="#B99470"/>
<circle cx="208.5" cy="576.5" r="1.5" fill="#B99470"/>
<circle cx="231.5" cy="576.5" r="1.5" fill="#B99470"/>
<circle cx="254.5" cy="576.5" r="1.5" fill="#B99470"/>
<circle cx="277.5" cy="576.5" r="1.5" fill="#B99470"/>
<circle cx="300.5" cy="576.5" r="1.5" fill="#B99470"/>
<circle cx="323.5" cy="576.5" r="1.5" fill="#B99470"/>
<circle cx="346.5" cy="576.5" r="1.5" fill="#B99470"/>
<circle cx="369.5" cy="576.5" r="1.5" fill="#B99470"/>
<circle cx="392.5" cy="576.5" r="1.5" fill="#B99470"/>
<circle cx="415.5" cy="576.5" r="1.5" fill="#B99470"/>
<circle cx="438.5" cy="576.5" r="1.5" fill="#B99470"/>
<circle cx="461.5" cy="576.5" r="1.5" fill="#B99470"/>
<circle cx="484.5" cy="576.5" r="1.5" fill="#B99470"/>
<circle cx="507.5" cy="576.5" r="1.5" fill="#B99470"/>
<circle cx="530.5" cy="576.5" r="1.5" fill="#B99470"/>
<circle cx="553.5" cy="576.5" r="1.5" fill="#B99470"/>
<circle cx="47.5" cy="599.5" r="1.5" fill="#B99470"/>
<circle cx="70.5" cy="599.5" r="1.5" fill="#B99470"/>
<circle cx="93.5" cy="599.5" r="1.5" fill="#B99470"/>
<circle cx="116.5" cy="599.5" r="1.5" fill="#B99470"/>
<circle cx="139.5" cy="599.5" r="1.5" fill="#B99470"/>
<circle cx="162.5" cy="599.5" r="1.5" fill="#B99470"/>
<circle cx="185.5" cy="599.5" r="1.5" fill="#B99470"/>
<circle cx="208.5" cy="599.5" r="1.5" fill="#B99470"/>
<circle cx="231.5" cy="599.5" r="1.5" fill="#B99470"/>
<circle cx="254.5" cy="599.5" r="1.5" fill="#B99470"/>
<circle cx="277.5" cy="599.5" r="1.5" fill="#B99470"/>
<circle cx="300.5" cy="599.5" r="1.5" fill="#B99470"/>
<circle cx="323.5" cy="599.5" r="1.5" fill="#B99470"/>
<circle cx="346.5" cy="599.5" r="1.5" fill="#B99470"/>
<circle cx="369.5" cy="599.5" r="1.5" fill="#B99470"/>
<circle cx="392.5" cy="599.5" r="1.5" fill="#B99470"/>
<circle cx="415.5" cy="599.5" r="1.5" fill="#B99470"/>
<circle cx="438.5" cy="599.5" r="1.5" fill="#B99470"/>
<circle cx="461.5" cy="599.5" r="1.5" fill="#B99470"/>
<circle cx="484.5" cy="599.5" r="1.5" fill="#B99470"/>
<circle cx="507.5" cy="599.5" r="1.5" fill="#B99470"/>
<circle cx="530.5" cy="599.5" r="1.5" fill="#B99470"/>
<circle cx="553.5" cy="599.5" r="1.5" fill="#B99470"/>
<circle cx="47.5" cy="622.5" r="1.5" fill="#B99470"/>
<circle cx="70.5" cy="622.5" r="1.5" fill="#B99470"/>
<circle cx="93.5" cy="622.5" r="1.5" fill="#B99470"/>
<circle cx="116.5" cy="622.5" r="1.5" fill="#B99470"/>
<circle cx="139.5" cy="622.5" r="1.5" fill="#B99470"/>
<circle cx="162.5" cy="622.5" r="1.5" fill="#B99470"/>
<circle cx="185.5" cy="622.5" r="1.5" fill="#B99470"/>
<circle cx="208.5" cy="622.5" r="1.5" fill="#B99470"/>
<circle cx="231.5" cy="622.5" r="1.5" fill="#B99470"/>
<circle cx="254.5" cy="622.5" r="1.5" fill="#B99470"/>
<circle cx="277.5" cy="622.5" r="1.5" fill="#B99470"/>
<circle cx="300.5" cy="622.5" r="1.5" fill="#B99470"/>
<circle cx="323.5" cy="622.5" r="1.5" fill="#B99470"/>
<circle cx="346.5" cy="622.5" r="1.5" fill="#B99470"/>
<circle cx="369.5" cy="622.5" r="1.5" fill="#B99470"/>
<circle cx="392.5" cy="622.5" r="1.5" fill="#B99470"/>
<circle cx="415.5" cy="622.5" r="1.5" fill="#B99470"/>
<circle cx="438.5" cy="622.5" r="1.5" fill="#B99470"/>
<circle cx="461.5" cy="622.5" r="1.5" fill="#B99470"/>
<circle cx="484.5" cy="622.5" r="1.5" fill="#B99470"/>
<circle cx="507.5" cy="622.5" r="1.5" fill="#B99470"/>
<circle cx="530.5" cy="622.5" r="1.5" fill="#B99470"/>
<circle cx="553.5" cy="622.5" r="1.5" fill="#B99470"/>
<circle cx="47.5" cy="645.5" r="1.5" fill="#B99470"/>
<circle cx="70.5" cy="645.5" r="1.5" fill="#B99470"/>
<circle cx="93.5" cy="645.5" r="1.5" fill="#B99470"/>
<circle cx="116.5" cy="645.5" r="1.5" fill="#B99470"/>
<circle cx="139.5" cy="645.5" r="1.5" fill="#B99470"/>
<circle cx="162.5" cy="645.5" r="1.5" fill="#B99470"/>
<circle cx="185.5" cy="645.5" r="1.5" fill="#B99470"/>
<circle cx="208.5" cy="645.5" r="1.5" fill="#B99470"/>
<circle cx="231.5" cy="645.5" r="1.5" fill="#B99470"/>
<circle cx="254.5" cy="645.5" r="1.5" fill="#B99470"/>
<circle cx="277.5" cy="645.5" r="1.5" fill="#B99470"/>
<circle cx="300.5" cy="645.5" r="1.5" fill="#B99470"/>
<circle cx="323.5" cy="645.5" r="1.5" fill="#B99470"/>
<circle cx="346.5" cy="645.5" r="1.5" fill="#B99470"/>
<circle cx="369.5" cy="645.5" r="1.5" fill="#B99470"/>
<circle cx="392.5" cy="645.5" r="1.5" fill="#B99470"/>
<circle cx="415.5" cy="645.5" r="1.5" fill="#B99470"/>
<circle cx="438.5" cy="645.5" r="1.5" fill="#B99470"/>
<circle cx="461.5" cy="645.5" r="1.5" fill="#B99470"/>
<circle cx="484.5" cy="645.5" r="1.5" fill="#B99470"/>
<circle cx="507.5" cy="645.5" r="1.5" fill="#B99470"/>
<circle cx="530.5" cy="645.5" r="1.5" fill="#B99470"/>
<circle cx="553.5" cy="645.5" r="1.5" fill="#B99470"/>
<circle cx="47.5" cy="668.5" r="1.5" fill="#B99470"/>
<circle cx="70.5" cy="668.5" r="1.5" fill="#B99470"/>
<circle cx="93.5" cy="668.5" r="1.5" fill="#B99470"/>
<circle cx="116.5" cy="668.5" r="1.5" fill="#B99470"/>
<circle cx="139.5" cy="668.5" r="1.5" fill="#B99470"/>
<circle cx="162.5" cy="668.5" r="1.5" fill="#B99470"/>
<circle cx="185.5" cy="668.5" r="1.5" fill="#B99470"/>
<circle cx="208.5" cy="668.5" r="1.5" fill="#B99470"/>
<circle cx="231.5" cy="668.5" r="1.5" fill="#B99470"/>
<circle cx="254.5" cy="668.5" r="1.5" fill="#B99470"/>
<circle cx="277.5" cy="668.5" r="1.5" fill="#B99470"/>
<circle cx="300.5" cy="668.5" r="1.5" fill="#B99470"/>
<circle cx="323.5" cy="668.5" r="1.5" fill="#B99470"/>
<circle cx="346.5" cy="668.5" r="1.5" fill="#B99470"/>
<circle cx="369.5" cy="668.5" r="1.5" fill="#B99470"/>
<circle cx="392.5" cy="668.5" r="1.5" fill="#B99470"/>
<circle cx="415.5" cy="668.5" r="1.5" fill="#B99470"/>
<circle cx="438.5" cy="668.5" r="1.5" fill="#B99470"/>
<circle cx="461.5" cy="668.5" r="1.5" fill="#B99470"/>
<circle cx="484.5" cy="668.5" r="1.5" fill="#B99470"/>
<circle cx="507.5" cy="668.5" r="1.5" fill="#B99470"/>
<circle cx="530.5" cy="668.5" r="1.5" fill="#B99470"/>
<circle cx="553.5" cy="668.5" r="1.5" fill="#B99470"/>
<circle cx="47.5" cy="691.5" r="1.5" fill="#B99470"/>
<circle cx="70.5" cy="691.5" r="1.5" fill="#B99470"/>
<circle cx="93.5" cy="691.5" r="1.5" fill="#B99470"/>
<circle cx="116.5" cy="691.5" r="1.5" fill="#B99470"/>
<circle cx="139.5" cy="691.5" r="1.5" fill="#B99470"/>
<circle cx="162.5" cy="691.5" r="1.5" fill="#B99470"/>
<circle cx="185.5" cy="691.5" r="1.5" fill="#B99470"/>
<circle cx="208.5" cy="691.5" r="1.5" fill="#B99470"/>
<circle cx="231.5" cy="691.5" r="1.5" fill="#B99470"/>
<circle cx="254.5" cy="691.5" r="1.5" fill="#B99470"/>
<circle cx="277.5" cy="691.5" r="1.5" fill="#B99470"/>
<circle cx="300.5" cy="691.5" r="1.5" fill="#B99470"/>
<circle cx="323.5" cy="691.5" r="1.5" fill="#B99470"/>
<circle cx="346.5" cy="691.5" r="1.5" fill="#B99470"/>
<circle cx="369.5" cy="691.5" r="1.5" fill="#B99470"/>
<circle cx="392.5" cy="691.5" r="1.5" fill="#B99470"/>
<circle cx="415.5" cy="691.5" r="1.5" fill="#B99470"/>
<circle cx="438.5" cy="691.5" r="1.5" fill="#B99470"/>
<circle cx="461.5" cy="691.5" r="1.5" fill="#B99470"/>
<circle cx="484.5" cy="691.5" r="1.5" fill="#B99470"/>
<circle cx="507.5" cy="691.5" r="1.5" fill="#B99470"/>
<circle cx="530.5" cy="691.5" r="1.5" fill="#B99470"/>
<circle cx="553.5" cy="691.5" r="1.5" fill="#B99470"/>
<circle cx="47.5" cy="714.5" r="1.5" fill="#B99470"/>
<circle cx="70.5" cy="714.5" r="1.5" fill="#B99470"/>
<circle cx="93.5" cy="714.5" r="1.5" fill="#B99470"/>
<circle cx="116.5" cy="714.5" r="1.5" fill="#B99470"/>
<circle cx="139.5" cy="714.5" r="1.5" fill="#B99470"/>
<circle cx="162.5" cy="714.5" r="1.5" fill="#B99470"/>
<circle cx="185.5" cy="714.5" r="1.5" fill="#B99470"/>
<circle cx="208.5" cy="714.5" r="1.5" fill="#B99470"/>
<circle cx="231.5" cy="714.5" r="1.5" fill="#B99470"/>
<circle cx="254.5" cy="714.5" r="1.5" fill="#B99470"/>
<circle cx="277.5" cy="714.5" r="1.5" fill="#B99470"/>
<circle cx="300.5" cy="714.5" r="1.5" fill="#B99470"/>
<circle cx="323.5" cy="714.5" r="1.5" fill="#B99470"/>
<circle cx="346.5" cy="714.5" r="1.5" fill="#B99470"/>
<circle cx="369.5" cy="714.5" r="1.5" fill="#B99470"/>
<circle cx="392.5" cy="714.5" r="1.5" fill="#B99470"/>
<circle cx="415.5" cy="714.5" r="1.5" fill="#B99470"/>
<circle cx="438.5" cy="714.5" r="1.5" fill="#B99470"/>
<circle cx="461.5" cy="714.5" r="1.5" fill="#B99470"/>
<circle cx="484.5" cy="714.5" r="1.5" fill="#B99470"/>
<circle cx="507.5" cy="714.5" r="1.5" fill="#B99470"/>
<circle cx="530.5" cy="714.5" r="1.5" fill="#B99470"/>
<circle cx="553.5" cy="714.5" r="1.5" fill="#B99470"/>
<circle cx="47.5" cy="737.5" r="1.5" fill="#B99470"/>
<circle cx="70.5" cy="737.5" r="1.5" fill="#B99470"/>
<circle cx="93.5" cy="737.5" r="1.5" fill="#B99470"/>
<circle cx="116.5" cy="737.5" r="1.5" fill="#B99470"/>
<circle cx="139.5" cy="737.5" r="1.5" fill="#B99470"/>
<circle cx="162.5" cy="737.5" r="1.5" fill="#B99470"/>
<circle cx="185.5" cy="737.5" r="1.5" fill="#B99470"/>
<circle cx="208.5" cy="737.5" r="1.5" fill="#B99470"/>
<circle cx="231.5" cy="737.5" r="1.5" fill="#B99470"/>
<circle cx="254.5" cy="737.5" r="1.5" fill="#B99470"/>
<circle cx="277.5" cy="737.5" r="1.5" fill="#B99470"/>
<circle cx="300.5" cy="737.5" r="1.5" fill="#B99470"/>
<circle cx="323.5" cy="737.5" r="1.5" fill="#B99470"/>
<circle cx="346.5" cy="737.5" r="1.5" fill="#B99470"/>
<circle cx="369.5" cy="737.5" r="1.5" fill="#B99470"/>
<circle cx="392.5" cy="737.5" r="1.5" fill="#B99470"/>
<circle cx="415.5" cy="737.5" r="1.5" fill="#B99470"/>
<circle cx="438.5" cy="737.5" r="1.5" fill="#B99470"/>
<circle cx="461.5" cy="737.5" r="1.5" fill="#B99470"/>
<circle cx="484.5" cy="737.5" r="1.5" fill="#B99470"/>
<circle cx="507.5" cy="737.5" r="1.5" fill="#B99470"/>
<circle cx="530.5" cy="737.5" r="1.5" fill="#B99470"/>
<circle cx="553.5" cy="737.5" r="1.5" fill="#B99470"/>
<circle cx="47.5" cy="760.5" r="1.5" fill="#B99470"/>
<circle cx="70.5" cy="760.5" r="1.5" fill="#B99470"/>
<circle cx="93.5" cy="760.5" r="1.5" fill="#B99470"/>
<circle cx="116.5" cy="760.5" r="1.5" fill="#B99470"/>
<circle cx="139.5" cy="760.5" r="1.5" fill="#B99470"/>
<circle cx="162.5" cy="760.5" r="1.5" fill="#B99470"/>
<circle cx="185.5" cy="760.5" r="1.5" fill="#B99470"/>
<circle cx="208.5" cy="760.5" r="1.5" fill="#B99470"/>
<circle cx="231.5" cy="760.5" r="1.5" fill="#B99470"/>
<circle cx="254.5" cy="760.5" r="1.5" fill="#B99470"/>
<circle cx="277.5" cy="760.5" r="1.5" fill="#B99470"/>
<circle cx="300.5" cy="760.5" r="1.5" fill="#B99470"/>
<circle cx="323.5" cy="760.5" r="1.5" fill="#B99470"/>
<circle cx="346.5" cy="760.5" r="1.5" fill="#B99470"/>
<circle cx="369.5" cy="760.5" r="1.5" fill="#B99470"/>
<circle cx="392.5" cy="760.5" r="1.5" fill="#B99470"/>
<circle cx="415.5" cy="760.5" r="1.5" fill="#B99470"/>
<circle cx="438.5" cy="760.5" r="1.5" fill="#B99470"/>
<circle cx="461.5" cy="760.5" r="1.5" fill="#B99470"/>
<circle cx="484.5" cy="760.5" r="1.5" fill="#B99470"/>
<circle cx="507.5" cy="760.5" r="1.5" fill="#B99470"/>
<circle cx="530.5" cy="760.5" r="1.5" fill="#B99470"/>
<circle cx="553.5" cy="760.5" r="1.5" fill="#B99470"/>
</g>
<path d="M0 49H600V99C600 115.569 586.569 129 570 129H30C13.4315 129 0 115.569 0 99V49Z" fill="#DEAC80"/>
<path d="M600 15C600 6.71573 593.284 0 585 0H15C6.7157 0 0 6.71573 0 15V50C0 66.5685 13.4315 80 30 80H570C586.569 80 600 66.5685 600 50V15Z" fill="#B99470"/>
<defs>
<clipPath id="clip0_19_2">
<rect width="509" height="619" fill="white" transform="translate(46 161)"/>
</clipPath>
</defs>
</svg>
